<?xml version="1.0" encoding="utf-8"?>
<!-- Generator: Adobe Illustrator 23.0.1, SVG Export Plug-In . SVG Version: 6.00 Build 0)  -->
<svg version="1.1" id="Warstwa_1" xmlns="http://www.w3.org/2000/svg" xmlns:xlink="http://www.w3.org/1999/xlink" x="0px" y="0px"
	 viewBox="0 0 48 48" style="enable-background:new 0 0 48 48;" xml:space="preserve">
<style type="text/css">
	.st0{fill:#FFFFFF;}
</style>
<path class="st0" d="M36.5,28v-6.5H30v-3h6.5V12h3v6.5H46v3h-6.5V28H36.5z M18,23.9c-2.2,0-4-0.7-5.4-2.1c-1.4-1.4-2.1-3.2-2.1-5.4
	s0.7-4,2.1-5.4s3.2-2.1,5.4-2.1s4,0.7,5.4,2.1c1.4,1.4,2.1,3.2,2.1,5.4s-0.7,4-2.1,5.4C22,23.3,20.2,23.9,18,23.9z M2,40v-4.7
	c0-1.2,0.3-2.2,0.9-3.2s1.4-1.7,2.5-2.1c2.5-1.1,4.7-1.9,6.7-2.3C14,27.2,16,27,18,27c2,0,4,0.2,5.9,0.7c1.9,0.5,4.2,1.2,6.7,2.3
	c1.1,0.5,1.9,1.2,2.6,2.2c0.6,0.9,0.9,2,0.9,3.1V40H2z M5,37h26v-1.7c0-0.5-0.1-1-0.4-1.5c-0.3-0.5-0.7-0.8-1.2-1.1
	c-2.4-1.1-4.4-1.8-6-2.2S19.9,30,18,30s-3.7,0.2-5.4,0.5s-3.7,1.1-6,2.2c-0.5,0.2-0.9,0.6-1.2,1.1c-0.3,0.5-0.4,1-0.4,1.5V37z
	 M18,20.9c1.3,0,2.4-0.4,3.2-1.3s1.3-1.9,1.3-3.2c0-1.3-0.4-2.4-1.3-3.2s-1.9-1.3-3.2-1.3c-1.3,0-2.4,0.4-3.2,1.3
	c-0.9,0.9-1.3,1.9-1.3,3.2c0,1.3,0.4,2.4,1.3,3.2C15.6,20.5,16.7,20.9,18,20.9z"/>
</svg>
