<?xml version="1.0" encoding="utf-8"?>
<!-- Generator: Adobe Illustrator 23.0.1, SVG Export Plug-In . SVG Version: 6.00 Build 0)  -->
<svg version="1.1" id="Warstwa_1" xmlns="http://www.w3.org/2000/svg" xmlns:xlink="http://www.w3.org/1999/xlink" x="0px" y="0px"
	 viewBox="0 0 48 48" style="enable-background:new 0 0 48 48;" xml:space="preserve">
<style type="text/css">
	.st0{fill:#FFFFFF;}
</style>
<path class="st0" d="M7,40c-0.8,0-1.5-0.3-2.1-0.9C4.3,38.5,4,37.8,4,37V11c0-0.8,0.3-1.5,0.9-2.1C5.5,8.3,6.2,8,7,8h26
	c0.8,0,1.5,0.3,2.1,0.9C35.7,9.5,36,10.2,36,11v10.8l8-8v20.5l-8-8V37c0,0.8-0.3,1.5-0.9,2.1C34.5,39.7,33.8,40,33,40H7z M7,37h26
	V11H7V37z M7,37V11V37z"/>
</svg>
